<svg xmlns="http://www.w3.org/2000/svg" viewBox="0 0 1920 922" width="1920"><path fill="#FFF" d="M0 0h1920v922H0z"/><linearGradient id="a" gradientUnits="userSpaceOnUse" x1="460.744" y1="961.572" x2="460.724" y2="961.095" gradientTransform="matrix(-1920 0 0 -915 885580 880192)"><stop offset="0" stop-color="#f26a35"/><stop offset="1" stop-color="#ca2061"/></linearGradient><path opacity=".524" fill="url(#a)" d="M1920 0H0v915c129.3-111.1 289-166.7 479-166.7 285 0 691 37.4 962 37.4 180.7 0 340.3-23 479-69.1V0z"/><linearGradient id="b" gradientUnits="userSpaceOnUse" x1="460.264" y1="960.925" x2="460.264" y2="961.956" gradientTransform="matrix(1949.9999 0 0 -867 -896539.938 834016)"><stop offset="0" stop-color="#ee3048"/><stop offset="1" stop-color="#f26a35"/></linearGradient><path opacity=".524" fill="url(#b)" d="M0 0h1921.7c37.8 444.5 37.8 694.7 0 750.5-56.6 83.7-194-42.4-478.9-42.4S751.9 867 480.9 867C300.3 867 140 814 0 708V0z"/></svg>